<svg xmlns="http://www.w3.org/2000/svg" width="1780" height="1400" viewBox="0 0 1780 1400" font-family="Segoe UI, Helvetica, Arial, sans-serif">
<rect x="0" y="0" width="1780" height="1400" fill="#ffffff"/>
<defs>
<marker id="ah" markerWidth="11" markerHeight="11" refX="9" refY="4" orient="auto" markerUnits="userSpaceOnUse"><path d="M0,0 L9,4 L0,8 z" fill="#1e3a8a"/></marker>
<marker id="ahg" markerWidth="11" markerHeight="11" refX="9" refY="4" orient="auto" markerUnits="userSpaceOnUse"><path d="M0,0 L9,4 L0,8 z" fill="#64748b"/></marker>
</defs>
<text x="48" y="46" font-size="27" font-weight="700" fill="#0f172a">TALOS -- System Architecture</text>
<text x="49" y="72" font-size="14" fill="#475569">Open-source multi-agent detection, classification and scope analysis . Hackathon slice: Web Application + Network domains</text>
<text x="49" y="92" font-size="12" fill="#475569">Derived from Talos_HLD.md . Talos_LLD.md . Talos_DFD.md</text>
<rect x="1300" y="22" width="432" height="96" rx="10" fill="#f8fafc" stroke="#cbd5e1"/>
<text x="1314" y="44" font-size="12.5" font-weight="700" fill="#0f172a">Legend</text>
<line x1="1316" y1="64" x2="1356" y2="64" stroke="#1e3a8a" stroke-width="2.4" marker-end="url(#ah)"/>
<text x="1364" y="68" font-size="11.5" fill="#475569">Event / verdict flow (pipeline)</text>
<line x1="1316" y1="86" x2="1356" y2="86" stroke="#64748b" stroke-width="2.2" stroke-dasharray="5 4" marker-end="url(#ahg)"/>
<text x="1364" y="90" font-size="11.5" fill="#475569">Data-store r/w and LLM inference</text>
<text x="1316" y="110" font-size="10.5" fill="#475569">Model tiers are placeholders -- verify at build.nvidia.com</text>
<rect x="45" y="150" width="1400" height="120" rx="12" fill="#f8fafc" stroke="#e2e8f0"/>
<text x="61" y="167.0" font-size="11.5" font-weight="700" fill="#475569" letter-spacing="1.5">EXTERNAL TELEMETRY SOURCES</text>
<rect x="45" y="290" width="1400" height="120" rx="12" fill="#f6fdff" stroke="#e2e8f0"/>
<text x="61" y="307.0" font-size="11.5" font-weight="700" fill="#475569" letter-spacing="1.5">1 · INGESTION LAYER</text>
<rect x="45" y="430" width="1400" height="110" rx="12" fill="#fffdf5" stroke="#e2e8f0"/>
<text x="61" y="447.0" font-size="11.5" font-weight="700" fill="#475569" letter-spacing="1.5">2 · ORCHESTRATION LAYER</text>
<rect x="45" y="560" width="1400" height="110" rx="12" fill="#f6fef9" stroke="#e2e8f0"/>
<text x="61" y="577.0" font-size="11.5" font-weight="700" fill="#475569" letter-spacing="1.5">3 · DOMAIN LAYER</text>
<rect x="45" y="690" width="1400" height="360" rx="12" fill="#fcfaff" stroke="#e2e8f0"/>
<text x="61" y="707.0" font-size="11.5" font-weight="700" fill="#475569" letter-spacing="1.5">4 · DETECTION LAYER</text>
<rect x="45" y="1070" width="1400" height="130" rx="12" fill="#fff7f8" stroke="#e2e8f0"/>
<text x="61" y="1087.0" font-size="11.5" font-weight="700" fill="#475569" letter-spacing="1.5">5 · REPORTING LAYER</text>
<rect x="45" y="1220" width="1400" height="120" rx="12" fill="#f8fafc" stroke="#e2e8f0"/>
<text x="61" y="1237.0" font-size="11.5" font-weight="700" fill="#475569" letter-spacing="1.5">CONSUMERS</text>
<rect x="210.0" y="190" width="220" height="60" rx="10" fill="#eef2ff" stroke="#6366f1" stroke-width="2"/>
<text x="320.0" y="224.8" font-size="12.5" font-weight="700" fill="#0f172a" text-anchor="middle">WAF / HTTP Access Logs</text>
<rect x="500.0" y="190" width="200" height="60" rx="10" fill="#eef2ff" stroke="#6366f1" stroke-width="2"/>
<text x="600.0" y="224.8" font-size="12.5" font-weight="700" fill="#0f172a" text-anchor="middle">Application Logs</text>
<rect x="940.0" y="190" width="150" height="60" rx="10" fill="#eef2ff" stroke="#6366f1" stroke-width="2"/>
<text x="1015.0" y="224.8" font-size="12.5" font-weight="700" fill="#0f172a" text-anchor="middle">SSH Auth Logs</text>
<rect x="1105.0" y="190" width="150" height="60" rx="10" fill="#eef2ff" stroke="#6366f1" stroke-width="2"/>
<text x="1180.0" y="224.8" font-size="12.5" font-weight="700" fill="#0f172a" text-anchor="middle">RDP Auth Logs</text>
<rect x="1270.0" y="190" width="150" height="60" rx="10" fill="#eef2ff" stroke="#6366f1" stroke-width="2"/>
<text x="1345.0" y="224.8" font-size="12.5" font-weight="700" fill="#0f172a" text-anchor="middle">Network Flow Data</text>
<rect x="300.0" y="325" width="360" height="70" rx="10" fill="#ecfeff" stroke="#0891b2" stroke-width="2"/>
<text x="480.0" y="358.5" font-size="14" font-weight="700" fill="#0f172a" text-anchor="middle">Web Log Parser</text>
<text x="480.0" y="377.5" font-size="10.2" fill="#475569" text-anchor="middle" font-style="italic">HTTP/WAF/app to NormalizedEvent</text>
<rect x="990.0" y="325" width="380" height="70" rx="10" fill="#ecfeff" stroke="#0891b2" stroke-width="2"/>
<text x="1180.0" y="358.5" font-size="14" font-weight="700" fill="#0f172a" text-anchor="middle">Network / Auth Log Parser</text>
<text x="1180.0" y="377.5" font-size="10.2" fill="#475569" text-anchor="middle" font-style="italic">SSH/RDP/flow to NormalizedEvent</text>
<rect x="215.0" y="452" width="1130" height="76" rx="10" fill="#fef3c7" stroke="#d97706" stroke-width="2"/>
<text x="780.0" y="489.5" font-size="16" font-weight="700" fill="#0f172a" text-anchor="middle">Orchestrator</text>
<text x="780.0" y="510.5" font-size="10.2" fill="#475569" text-anchor="middle" font-style="italic">Single entry point . routes by domain only . pipeline tracking . registry (extensibility) . verdict aggregation</text>
<rect x="200.0" y="585" width="560" height="74" rx="10" fill="#f0fdf4" stroke="#16a34a" stroke-width="2"/>
<text x="480.0" y="620.5" font-size="14" font-weight="700" fill="#0f172a" text-anchor="middle">Web Application Domain Agent</text>
<text x="480.0" y="639.5" font-size="10.2" fill="#475569" text-anchor="middle" font-style="italic">Normalizes HTTP / WAF / app logs</text>
<rect x="990.0" y="585" width="380" height="74" rx="10" fill="#eff6ff" stroke="#2563eb" stroke-width="2"/>
<text x="1180.0" y="620.5" font-size="14" font-weight="700" fill="#0f172a" text-anchor="middle">Network Domain Agent</text>
<text x="1180.0" y="639.5" font-size="10.2" fill="#475569" text-anchor="middle" font-style="italic">Normalizes SSH / RDP / flow logs</text>
<rect x="200.0" y="712" width="560" height="64" rx="10" fill="#f0fdfa" stroke="#0d9488" stroke-width="2"/>
<text x="480.0" y="742.5" font-size="14" font-weight="700" fill="#0f172a" text-anchor="middle">Web Type Classifier</text>
<text x="480.0" y="761.5" font-size="10.2" fill="#475569" text-anchor="middle" font-style="italic">to injection | auth_failure | broken_access_control . Llama 3.1 8B</text>
<rect x="990.0" y="712" width="380" height="64" rx="10" fill="#f0fdfa" stroke="#0d9488" stroke-width="2"/>
<text x="1180.0" y="742.5" font-size="14" font-weight="700" fill="#0f172a" text-anchor="middle">Network Type Classifier</text>
<text x="1180.0" y="761.5" font-size="10.2" fill="#475569" text-anchor="middle" font-style="italic">to network_brute_force . Llama 3.1 8B</text>
<rect x="58.0" y="822" width="274" height="190" rx="12" fill="#faf5ff" stroke="#7c3aed" stroke-width="2.4"/>
<text x="195.0" y="844.0" font-size="13" font-weight="700" fill="#7c3aed" text-anchor="middle">Injection Sub-Agent</text>
<rect x="348.0" y="822" width="274" height="190" rx="12" fill="#fdf2f8" stroke="#db2777" stroke-width="2.4"/>
<text x="485.0" y="844.0" font-size="13" font-weight="700" fill="#db2777" text-anchor="middle">Authentication Failure Sub-Agent</text>
<rect x="638.0" y="822" width="274" height="190" rx="12" fill="#fff7ed" stroke="#ea580c" stroke-width="2.4"/>
<text x="775.0" y="844.0" font-size="13" font-weight="700" fill="#ea580c" text-anchor="middle">Broken Access Control (IDOR) Sub-Agent</text>
<rect x="1020.0" y="822" width="320" height="190" rx="12" fill="#ecfeff" stroke="#0e7490" stroke-width="2.4"/>
<text x="1180.0" y="844.0" font-size="13" font-weight="700" fill="#0e7490" text-anchor="middle">Network Brute Force Sub-Agent</text>
<rect x="72.0" y="864" width="246" height="58" rx="8" fill="#ffffff" stroke="#334155" stroke-width="2"/>
<text x="195.0" y="890.6" font-size="12.3" font-weight="700" fill="#0f172a" text-anchor="middle">SQL Injection Detector</text>
<text x="195.0" y="907.9" font-size="9.2" fill="#475569" text-anchor="middle" font-style="italic">T1190 . CodeLlama 13B</text>
<rect x="72.0" y="932" width="246" height="58" rx="8" fill="#ffffff" stroke="#334155" stroke-width="2"/>
<text x="195.0" y="958.6" font-size="12.3" font-weight="700" fill="#0f172a" text-anchor="middle">XSS Detector</text>
<text x="195.0" y="975.9" font-size="9.2" fill="#475569" text-anchor="middle" font-style="italic">T1059.007 . Llama 3.1 8B</text>
<rect x="362.0" y="864" width="246" height="58" rx="8" fill="#ffffff" stroke="#334155" stroke-width="2"/>
<text x="485.0" y="890.6" font-size="12.3" font-weight="700" fill="#0f172a" text-anchor="middle">Brute Force Detector</text>
<text x="485.0" y="907.9" font-size="9.2" fill="#475569" text-anchor="middle" font-style="italic">T1110 . Llama 3.2 3B</text>
<rect x="362.0" y="932" width="246" height="58" rx="8" fill="#ffffff" stroke="#334155" stroke-width="2"/>
<text x="485.0" y="958.6" font-size="12.3" font-weight="700" fill="#0f172a" text-anchor="middle">Credential Stuffing Detector</text>
<text x="485.0" y="975.9" font-size="9.2" fill="#475569" text-anchor="middle" font-style="italic">T1110.004 . Llama 3.2 3B</text>
<rect x="652.0" y="864" width="246" height="58" rx="8" fill="#ffffff" stroke="#334155" stroke-width="2"/>
<text x="775.0" y="890.6" font-size="12.3" font-weight="700" fill="#0f172a" text-anchor="middle">Access Pattern Baseliner</text>
<text x="775.0" y="907.9" font-size="9.2" fill="#475569" text-anchor="middle" font-style="italic">baseline . Mixtral 8x7B</text>
<rect x="652.0" y="932" width="246" height="58" rx="8" fill="#ffffff" stroke="#334155" stroke-width="2"/>
<text x="775.0" y="958.6" font-size="12.3" font-weight="700" fill="#0f172a" text-anchor="middle">Deviation Scorer</text>
<text x="775.0" y="975.9" font-size="9.2" fill="#475569" text-anchor="middle" font-style="italic">T1083/T1530 . Llama 3.1 70B</text>
<rect x="1034.0" y="864" width="292" height="58" rx="8" fill="#ffffff" stroke="#334155" stroke-width="2"/>
<text x="1180.0" y="890.6" font-size="12.3" font-weight="700" fill="#0f172a" text-anchor="middle">SSH Brute Force Detector</text>
<text x="1180.0" y="907.9" font-size="9.2" fill="#475569" text-anchor="middle" font-style="italic">T1110 . Llama 3.2 3B</text>
<rect x="1034.0" y="932" width="292" height="58" rx="8" fill="#ffffff" stroke="#334155" stroke-width="2"/>
<text x="1180.0" y="958.6" font-size="12.3" font-weight="700" fill="#0f172a" text-anchor="middle">RDP Brute Force Detector</text>
<text x="1180.0" y="975.9" font-size="9.2" fill="#475569" text-anchor="middle" font-style="italic">T1110 . Llama 3.2 3B</text>
<rect x="330.0" y="1098" width="900" height="82" rx="10" fill="#fff1f2" stroke="#e11d48" stroke-width="2"/>
<text x="780.0" y="1138.5" font-size="16" font-weight="700" fill="#0f172a" text-anchor="middle">Reporting / Output Layer</text>
<text x="780.0" y="1159.5" font-size="10.2" fill="#475569" text-anchor="middle" font-style="italic">Aggregate Verdicts to Incident Report (JSON) . MITRE ATT&amp;CK . confidence . scope . evidence</text>
<rect x="300.0" y="1252" width="260" height="66" rx="10" fill="#f1f5f9" stroke="#334155" stroke-width="2"/>
<text x="430.0" y="1290.5" font-size="14" font-weight="700" fill="#0f172a" text-anchor="middle">SIEM / SOAR</text>
<rect x="650.0" y="1252" width="260" height="66" rx="10" fill="#f1f5f9" stroke="#334155" stroke-width="2"/>
<text x="780.0" y="1290.5" font-size="14" font-weight="700" fill="#0f172a" text-anchor="middle">Security Analyst</text>
<rect x="1000.0" y="1252" width="260" height="66" rx="10" fill="#f1f5f9" stroke="#334155" stroke-width="2"/>
<text x="1130.0" y="1290.5" font-size="14" font-weight="700" fill="#0f172a" text-anchor="middle">API / Dashboard</text>
<path d="M1482.0,461 A125.0,9 0 0 1 1732.0,461 L1732.0,513 A125.0,9 0 0 1 1482.0,513 Z" fill="#feffd6" stroke="#a16207" stroke-width="2"/>
<path d="M1482.0,461 A125.0,9 0 0 0 1732.0,461" fill="none" stroke="#a16207" stroke-width="2"/>
<text x="1607.0" y="490.0" font-size="12" font-weight="700" fill="#0f172a" text-anchor="middle">D4 . Config &amp; Routing</text>
<text x="1607.0" y="505.0" font-size="9.3" fill="#475569" text-anchor="middle">thresholds . routing . calibration</text>
<path d="M1482.0,569 A125.0,9 0 0 1 1732.0,569 L1732.0,621 A125.0,9 0 0 1 1482.0,621 Z" fill="#feffd6" stroke="#a16207" stroke-width="2"/>
<path d="M1482.0,569 A125.0,9 0 0 0 1732.0,569" fill="none" stroke="#a16207" stroke-width="2"/>
<text x="1607.0" y="598.0" font-size="12" font-weight="700" fill="#0f172a" text-anchor="middle">D1 . Event Window</text>
<text x="1607.0" y="613.0" font-size="9.3" fill="#475569" text-anchor="middle">rolling TTL buffer</text>
<rect x="1482.0" y="700" width="250" height="100" rx="10" fill="#f5f3ff" stroke="#7c3aed" stroke-width="2"/>
<text x="1607.0" y="749.0" font-size="15" font-weight="700" fill="#0f172a" text-anchor="middle">Model Provider</text>
<text x="1607.0" y="769.0" font-size="10.2" fill="#475569" text-anchor="middle" font-style="italic">NIM . vLLM . Ollama</text>
<text x="1607" y="785" font-size="9.2" fill="#475569" text-anchor="middle">per-agent model routing</text>
<path d="M1482.0,869 A125.0,9 0 0 1 1732.0,869 L1732.0,921 A125.0,9 0 0 1 1482.0,921 Z" fill="#feffd6" stroke="#a16207" stroke-width="2"/>
<path d="M1482.0,869 A125.0,9 0 0 0 1732.0,869" fill="none" stroke="#a16207" stroke-width="2"/>
<text x="1607.0" y="898.0" font-size="12" font-weight="700" fill="#0f172a" text-anchor="middle">D2 . Access Baselines</text>
<text x="1607.0" y="913.0" font-size="9.3" fill="#475569" text-anchor="middle">per-user normal access</text>
<path d="M1482.0,1107 A125.0,9 0 0 1 1732.0,1107 L1732.0,1171 A125.0,9 0 0 1 1482.0,1171 Z" fill="#feffd6" stroke="#a16207" stroke-width="2"/>
<path d="M1482.0,1107 A125.0,9 0 0 0 1732.0,1107" fill="none" stroke="#a16207" stroke-width="2"/>
<text x="1607.0" y="1142.0" font-size="12" font-weight="700" fill="#0f172a" text-anchor="middle">D3 . Verdict / Incident Log</text>
<text x="1607.0" y="1157.0" font-size="9.3" fill="#475569" text-anchor="middle">audit trail + evidence</text>
<line x1="320.0" y1="250.0" x2="415.0" y2="325.0" stroke="#1e3a8a" stroke-width="2.2" marker-end="url(#ah)"/>
<line x1="600.0" y1="250.0" x2="545.0" y2="325.0" stroke="#1e3a8a" stroke-width="2.2" marker-end="url(#ah)"/>
<line x1="1015.0" y1="250.0" x2="1100.0" y2="325.0" stroke="#1e3a8a" stroke-width="2.2" marker-end="url(#ah)"/>
<line x1="1180.0" y1="250.0" x2="1180.0" y2="325.0" stroke="#1e3a8a" stroke-width="2.2" marker-end="url(#ah)"/>
<line x1="1345.0" y1="250.0" x2="1265.0" y2="325.0" stroke="#1e3a8a" stroke-width="2.2" marker-end="url(#ah)"/>
<line x1="480.0" y1="395.0" x2="480.0" y2="452.0" stroke="#1e3a8a" stroke-width="2.2" marker-end="url(#ah)"/>
<rect x="431.0" y="414.5" width="98.0" height="15" rx="3" fill="#ffffff" opacity="0.92"/>
<text x="480.0" y="425.5" font-size="9.6" fill="#1e3a8a" text-anchor="middle" font-weight="600">NormalizedEvent</text>
<line x1="1180.0" y1="395.0" x2="1120.0" y2="452.0" stroke="#1e3a8a" stroke-width="2.2" marker-end="url(#ah)"/>
<line x1="480.0" y1="528.0" x2="480.0" y2="585.0" stroke="#1e3a8a" stroke-width="2.2" marker-end="url(#ah)"/>
<line x1="1180.0" y1="528.0" x2="1180.0" y2="585.0" stroke="#1e3a8a" stroke-width="2.2" marker-end="url(#ah)"/>
<line x1="480.0" y1="659.0" x2="480.0" y2="712.0" stroke="#1e3a8a" stroke-width="2.2" marker-end="url(#ah)"/>
<line x1="1180.0" y1="659.0" x2="1180.0" y2="712.0" stroke="#1e3a8a" stroke-width="2.2" marker-end="url(#ah)"/>
<line x1="470.0" y1="776.0" x2="205.0" y2="822.0" stroke="#1e3a8a" stroke-width="2.2" marker-end="url(#ah)"/>
<rect x="306.5" y="790.0" width="62.0" height="15" rx="3" fill="#ffffff" opacity="0.92"/>
<text x="337.5" y="801.0" font-size="9.6" fill="#1e3a8a" text-anchor="middle" font-weight="600">injection</text>
<line x1="480.0" y1="776.0" x2="485.0" y2="822.0" stroke="#1e3a8a" stroke-width="2.2" marker-end="url(#ah)"/>
<rect x="442.5" y="790.0" width="80.0" height="15" rx="3" fill="#ffffff" opacity="0.92"/>
<text x="482.5" y="801.0" font-size="9.6" fill="#1e3a8a" text-anchor="middle" font-weight="600">auth_failure</text>
<line x1="495.0" y1="776.0" x2="765.0" y2="822.0" stroke="#1e3a8a" stroke-width="2.2" marker-end="url(#ah)"/>
<rect x="587.0" y="790.0" width="86.0" height="15" rx="3" fill="#ffffff" opacity="0.92"/>
<text x="630.0" y="801.0" font-size="9.6" fill="#1e3a8a" text-anchor="middle" font-weight="600">broken_access</text>
<line x1="1180.0" y1="776.0" x2="1180.0" y2="822.0" stroke="#1e3a8a" stroke-width="2.2" marker-end="url(#ah)"/>
<rect x="1119.0" y="790.0" width="122.0" height="15" rx="3" fill="#ffffff" opacity="0.92"/>
<text x="1180.0" y="801.0" font-size="9.6" fill="#1e3a8a" text-anchor="middle" font-weight="600">network_brute_force</text>
<line x1="195.0" y1="1012.0" x2="470.0" y2="1098.0" stroke="#1e3a8a" stroke-width="2.2" marker-end="url(#ah)"/>
<rect x="304.5" y="1046.0" width="56.0" height="15" rx="3" fill="#ffffff" opacity="0.92"/>
<text x="332.5" y="1057.0" font-size="9.6" fill="#1e3a8a" text-anchor="middle" font-weight="600">Verdicts</text>
<line x1="485.0" y1="1012.0" x2="640.0" y2="1098.0" stroke="#1e3a8a" stroke-width="2.2" marker-end="url(#ah)"/>
<line x1="775.0" y1="1012.0" x2="820.0" y2="1098.0" stroke="#1e3a8a" stroke-width="2.2" marker-end="url(#ah)"/>
<line x1="1180.0" y1="1012.0" x2="1050.0" y2="1098.0" stroke="#1e3a8a" stroke-width="2.2" marker-end="url(#ah)"/>
<line x1="640.0" y1="1180.0" x2="450.0" y2="1252.0" stroke="#1e3a8a" stroke-width="2.2" marker-end="url(#ah)"/>
<line x1="780.0" y1="1180.0" x2="780.0" y2="1252.0" stroke="#1e3a8a" stroke-width="2.2" marker-end="url(#ah)"/>
<line x1="920.0" y1="1180.0" x2="1120.0" y2="1252.0" stroke="#1e3a8a" stroke-width="2.2" marker-end="url(#ah)"/>
<line x1="1345.0" y1="489.0" x2="1482.0" y2="560.0" stroke="#64748b" stroke-width="1.8" stroke-dasharray="6 4" stroke-opacity="0.8" marker-end="url(#ahg)"/>
<rect x="1391.5" y="515.5" width="44.0" height="15" rx="3" fill="#ffffff" opacity="0.92"/>
<text x="1413.5" y="526.5" font-size="9.6" fill="#64748b" text-anchor="middle" font-weight="600">append</text>
<line x1="1482.0" y1="585.0" x2="1341.0" y2="850.0" stroke="#64748b" stroke-width="1.8" stroke-dasharray="6 4" stroke-opacity="0.8" marker-end="url(#ahg)"/>
<rect x="1368.5" y="708.5" width="86.0" height="15" rx="3" fill="#ffffff" opacity="0.92"/>
<text x="1411.5" y="719.5" font-size="9.6" fill="#64748b" text-anchor="middle" font-weight="600">recent window</text>
<line x1="1482.0" y1="505.0" x2="1373.0" y2="726.0" stroke="#64748b" stroke-width="1.8" stroke-dasharray="6 4" stroke-opacity="0.8" marker-end="url(#ahg)"/>
<rect x="1405.5" y="606.5" width="44.0" height="15" rx="3" fill="#ffffff" opacity="0.92"/>
<text x="1427.5" y="617.5" font-size="9.6" fill="#64748b" text-anchor="middle" font-weight="600">config</text>
<line x1="1482.0" y1="745.0" x2="1341.0" y2="878.0" stroke="#64748b" stroke-width="1.8" stroke-dasharray="6 4" stroke-opacity="0.8" marker-end="url(#ahg)"/>
<rect x="1380.5" y="802.5" width="62.0" height="15" rx="3" fill="#ffffff" opacity="0.92"/>
<text x="1411.5" y="813.5" font-size="9.6" fill="#64748b" text-anchor="middle" font-weight="600">inference</text>
<line x1="1230.0" y1="1139.0" x2="1482.0" y2="1132.0" stroke="#64748b" stroke-width="1.8" stroke-dasharray="6 4" stroke-opacity="0.8" marker-end="url(#ahg)"/>
<rect x="1331.0" y="1126.5" width="50.0" height="15" rx="3" fill="#ffffff" opacity="0.92"/>
<text x="1356.0" y="1137.5" font-size="9.6" fill="#64748b" text-anchor="middle" font-weight="600">persist</text>
<path d="M1482.0,905.0 L1360.0,1035.0 L846.0,1035.0 L838.0,1014.0" fill="none" stroke="#64748b" stroke-width="1.8" stroke-dasharray="6 4" stroke-opacity="0.8" marker-end="url(#ahg)"/>
<rect x="1080.0" y="1021.0" width="80.0" height="15" rx="3" fill="#ffffff" opacity="0.92"/>
<text x="1120.0" y="1032.0" font-size="9.6" fill="#64748b" text-anchor="middle" font-weight="600">baseline r/w</text>
</svg>